# xmcd
#
# Track frame offsets:
#	150
#	13355
#	24780
#	37086
#	47499
#	59272
#	75372
#	88205
#	101066
#	112665
#	125414
#	139751
#	153447
#	167854
#	179606
#	190688
#	203616
#	216411
#	228380
#	242206
#
# Disc length: 3389 seconds
#
# Revision: 0
# Processed by: cddbd v1.4PL0 Copyright (c) Steve Scherf et al.
# Submitted via: dBpowerAMP V4.0
#
DISCID=0d0d3b14
DTITLE=Ray Charles - The Platinum Collection (Disk 1)
DYEAR=1900
DGENRE=Blues
TTITLE0=Baby Wont You Please Come Home
TTITLE1=She's On The Ball
TTITLE2=Honey Honey
TTITLE3=Ain't That Fine
TTITLE4=How Long?
TTITLE5=I Found My Baby There
TTITLE6=You Never Miss The Water ('Til The Well Runs Dry)
TTITLE7=The Snow Is Falling
TTITLE8=Tell Me Baby
TTITLE9=Blues Before Sunrise
TTITLE10=Some Day (Blues Is My Middle Name)
TTITLE11=Baby Let Me Hold Your Hand
TTITLE12=Kissa Me Baby
TTITLE13=See See Rider
TTITLE14=A Sentimental Blues
TTITLE15=Don't Put All Your Dreams In One Basket
TTITLE16=Why Did You Go?
TTITLE17=Can't You See Me Darling?
TTITLE18=This Love Of Mine
TTITLE19=Goin' Down Slow
EXTD=
EXTT0=
EXTT1=
EXTT2=
EXTT3=
EXTT4=
EXTT5=
EXTT6=
EXTT7=
EXTT8=
EXTT9=
EXTT10=
EXTT11=
EXTT12=
EXTT13=
EXTT14=
EXTT15=
EXTT16=
EXTT17=
EXTT18=
EXTT19=
PLAYORDER=
